FILE "Tekipaki Working Love FX (1998)(NEC Home Electronics)(JP)[FXNHE847].img" BINARY
  TRACK 01 AUDIO
    INDEX 01 00:00:00
  TRACK 02 MODE1/2352
    PREGAP 00:03:00
    INDEX 01 00:29:74
  TRACK 03 MODE1/2352
    INDEX 01 00:43:50
  TRACK 04 AUDIO
    PREGAP 00:02:00
    INDEX 01 40:16:37
  TRACK 05 AUDIO
    INDEX 01 43:12:01
